<?xml version="1.0" standalone="no"?>
<!DOCTYPE svg PUBLIC "-//W3C//DTD SVG 20010904//EN"
 "http://www.w3.org/TR/2001/REC-SVG-20010904/DTD/svg10.dtd">
<svg version="1.0" xmlns="http://www.w3.org/2000/svg"
 width="883.000000pt" height="485.000000pt" viewBox="0 0 883.000000 485.000000"
 preserveAspectRatio="xMidYMid meet">

<g transform="translate(0.000000,485.000000) scale(0.100000,-0.100000)"
fill="#000000" stroke="none">
<path d="M3516 4529 c-24 -35 0 -79 44 -79 47 0 78 58 48 88 -20 20 -75 15
-92 -9z"/>
<path d="M7112 4538 c-17 -17 -15 -54 4 -72 21 -22 60 -20 84 4 24 24 24 29 4
58 -17 25 -71 31 -92 10z"/>
<path d="M1082 4533 c-18 -7 -38 -50 -57 -123 -29 -112 -105 -293 -137 -327
-17 -17 -27 -36 -24 -42 10 -15 146 -15 146 1 0 6 -5 26 -12 45 -10 27 -9 38
5 68 l17 35 75 0 c68 0 76 -2 91 -25 11 -17 15 -41 12 -77 l-3 -53 83 -3 c69
-2 83 0 89 14 4 10 -3 23 -20 37 -19 16 -44 70 -91 193 -71 191 -80 209 -109
242 -20 21 -38 26 -65 15z m53 -196 c37 -98 36 -98 -37 -95 -57 3 -63 5 -60
23 7 42 55 156 63 148 4 -4 19 -38 34 -76z"/>
<path d="M4453 4533 c-28 -5 -28 -7 1 -46 13 -18 26 -45 29 -62 8 -47 -9 -338
-22 -363 -6 -12 -28 -26 -51 -32 -62 -17 -78 -73 -24 -86 79 -20 173 50 193
144 6 29 11 119 11 200 0 125 3 154 20 191 11 23 17 47 14 52 -5 9 -128 10
-171 2z"/>
<path d="M6015 4521 c-46 -28 -66 -56 -72 -99 -9 -70 32 -120 147 -177 76 -38
100 -62 100 -101 0 -42 -30 -64 -87 -64 -38 0 -49 6 -94 50 -55 54 -72 55 -72
3 0 -63 11 -82 56 -94 66 -18 177 -16 214 4 41 22 71 61 79 103 14 77 -23 125
-146 187 -102 51 -125 82 -93 126 33 43 79 40 141 -9 28 -23 56 -39 62 -35 5
3 10 26 10 50 0 63 -21 75 -130 75 -65 0 -92 -4 -115 -19z"/>
<path d="M7816 4433 c-13 -27 -34 -54 -46 -61 l-22 -13 22 -25 c20 -20 24 -38
30 -131 6 -111 17 -145 50 -163 28 -15 87 -12 120 5 42 22 39 45 -4 45 -56 0
-66 18 -66 124 0 100 4 109 53 121 37 10 34 32 -8 52 -27 13 -38 26 -46 55 -8
31 -14 38 -34 38 -19 0 -30 -10 -49 -47z"/>
<path d="M2230 4384 c-58 -20 -91 -40 -96 -60 -13 -52 31 -59 83 -13 42 36 73
35 91 -3 20 -41 2 -64 -59 -77 -97 -21 -139 -56 -139 -115 0 -23 6 -48 13 -57
33 -43 96 -50 156 -19 34 17 41 18 51 5 14 -17 82 -20 111 -5 24 13 25 37 0
45 -16 5 -19 20 -24 116 -6 124 -18 152 -72 175 -34 14 -85 17 -115 8z m88
-227 c4 -50 -19 -77 -64 -77 -64 0 -72 79 -11 105 52 24 71 16 75 -28z"/>
<path d="M3001 4373 c-58 -29 -74 -109 -29 -150 11 -10 50 -34 86 -53 68 -35
84 -58 62 -85 -21 -26 -64 -17 -114 22 -50 39 -66 36 -66 -14 0 -37 33 -61 95
-68 72 -9 126 6 159 46 51 61 24 122 -76 169 -72 34 -88 47 -88 72 0 41 73 40
113 -3 28 -30 52 -21 52 21 0 27 -6 37 -25 47 -35 18 -129 16 -169 -4z"/>
<path d="M3907 4369 c-35 -19 -40 -19 -56 -5 -22 20 -91 21 -116 2 -18 -13
-18 -14 3 -41 19 -24 22 -40 22 -125 0 -84 -3 -99 -20 -115 -42 -38 -21 -55
69 -55 72 0 82 10 65 58 -18 52 -18 182 1 209 20 29 62 38 91 18 23 -15 24
-21 24 -116 0 -55 -5 -109 -11 -120 -17 -33 5 -49 70 -49 32 0 65 6 75 13 16
12 15 14 -8 36 -24 23 -26 31 -26 110 0 146 -23 190 -102 197 -30 3 -54 -2
-81 -17z"/>
<path d="M4787 4376 c-50 -18 -79 -45 -75 -70 5 -35 54 -33 90 3 17 17 38 31
48 31 36 0 62 -55 42 -87 -4 -7 -31 -17 -60 -23 -96 -18 -142 -56 -142 -117 0
-77 93 -116 174 -74 35 18 42 19 56 6 21 -19 91 -19 116 0 19 15 18 16 -8 36
-27 20 -28 24 -29 112 0 51 -5 107 -12 126 -22 63 -112 88 -200 57z m113 -218
c0 -51 -7 -64 -40 -76 -41 -15 -70 2 -70 41 0 45 33 74 88 76 19 1 22 -4 22
-41z"/>
<path d="M5640 4384 c-58 -20 -91 -40 -96 -60 -13 -52 31 -59 83 -13 42 36 73
35 91 -3 20 -41 2 -64 -59 -77 -97 -21 -139 -56 -139 -115 0 -23 6 -48 13 -57
33 -43 96 -50 156 -19 34 17 41 18 51 5 14 -17 82 -20 111 -5 24 13 25 37 0
45 -16 5 -19 20 -24 116 -6 124 -18 152 -72 175 -34 14 -85 17 -115 8z m88
-227 c4 -50 -19 -77 -64 -77 -64 0 -72 79 -11 105 52 24 71 16 75 -28z"/>
<path d="M6466 4380 c-37 -12 -85 -56 -102 -97 -32 -75 -6 -192 51 -229 45
-29 102 -36 160 -20 56 17 95 50 78 67 -6 6 -19 6 -39 -1 -16 -6 -46 -12 -67
-12 -69 -1 -113 67 -100 157 12 88 74 116 132 61 41 -39 66 -32 66 19 0 37 -3
41 -35 52 -41 14 -103 15 -144 3z"/>
<path d="M7353 4379 c-44 -13 -51 -29 -22 -52 24 -19 24 -21 24 -196 0 -154
-2 -180 -18 -205 -30 -45 -18 -56 65 -56 92 0 111 10 81 42 -27 30 -36 61 -28
99 7 29 8 30 50 24 111 -17 208 90 191 213 -16 115 -114 175 -207 126 -28 -14
-32 -14 -48 0 -19 18 -40 19 -88 5z m208 -68 c27 -27 29 -35 29 -101 0 -39 -5
-81 -12 -93 -26 -49 -74 -61 -108 -27 -17 17 -20 33 -20 115 0 82 3 98 20 115
28 28 57 25 91 -9z"/>
<path d="M1434 4365 c-19 -14 -18 -15 9 -40 26 -25 27 -30 27 -120 0 -87 -2
-96 -27 -125 -34 -42 -22 -50 77 -50 82 0 111 11 95 33 -49 68 -50 71 -49 140
1 55 5 73 22 90 19 19 24 19 60 8 22 -8 44 -11 50 -7 30 19 10 86 -26 86 -10
0 -35 -9 -57 -20 -37 -19 -54 -15 -55 13 0 13 -106 7 -126 -8z"/>
<path d="M1788 4373 c-24 -6 -23 -26 2 -48 17 -16 20 -31 20 -118 0 -89 -2
-103 -21 -123 -37 -40 -20 -54 65 -54 78 0 106 6 106 22 0 5 -11 26 -25 46
-19 28 -25 49 -25 94 0 100 23 128 87 107 26 -8 37 -8 48 1 24 20 18 59 -10
72 -22 10 -33 8 -70 -10 -44 -21 -45 -21 -55 -2 -9 16 -20 20 -58 19 -26 -1
-55 -3 -64 -6z"/>
<path d="M2511 4371 c-11 -7 -8 -17 17 -52 40 -56 132 -268 132 -303 0 -32
-40 -76 -69 -76 -47 0 -67 -30 -39 -58 15 -15 72 -16 99 -2 24 13 61 86 134
265 31 77 68 157 82 177 14 20 22 42 18 47 -3 6 -30 11 -59 11 l-52 0 0 -62
c0 -67 -37 -172 -58 -165 -19 6 -59 120 -60 172 l-1 50 -65 3 c-36 1 -71 -2
-79 -7z"/>
<path d="M3488 4373 c-25 -6 -22 -29 5 -48 20 -14 22 -23 22 -114 0 -88 -3
-103 -23 -130 -13 -17 -20 -36 -17 -41 3 -6 44 -10 90 -10 46 0 87 4 90 10 3
5 -4 23 -17 40 -20 28 -23 45 -26 165 l-4 135 -52 -1 c-28 -1 -59 -3 -68 -6z"/>
<path d="M5085 4370 c-4 -7 6 -26 23 -43 17 -18 45 -68 62 -112 63 -159 78
-185 110 -185 15 0 32 6 38 13 5 6 31 64 57 127 26 63 61 132 77 153 37 48 29
59 -43 55 l-53 -3 -1 -65 c-1 -48 -8 -79 -27 -120 l-26 -55 -27 60 c-19 41
-29 79 -30 120 l-2 60 -76 3 c-48 2 -78 -1 -82 -8z"/>
<path d="M6738 4373 c-24 -6 -23 -26 2 -48 17 -16 20 -31 20 -118 0 -89 -2
-103 -21 -123 -37 -40 -20 -54 65 -54 78 0 106 6 106 22 0 5 -11 26 -25 46
-19 28 -25 49 -25 94 0 100 23 128 87 107 26 -8 37 -8 48 1 24 20 18 59 -10
72 -22 10 -33 8 -70 -10 -44 -21 -45 -21 -55 -2 -9 16 -20 20 -58 19 -26 -1
-55 -3 -64 -6z"/>
<path d="M7075 4365 c-20 -15 -20 -15 8 -36 26 -20 27 -23 27 -118 0 -83 -3
-102 -20 -124 -39 -49 -29 -57 68 -57 49 0 92 3 95 6 4 4 -4 21 -16 38 -19 27
-23 47 -27 166 l-5 135 -55 3 c-38 2 -61 -2 -75 -13z"/>
<path d="M1074 3526 l-34 -34 0 -1322 0 -1322 34 -34 34 -34 3402 0 3402 0 34
34 34 34 0 1322 0 1322 -34 34 -34 34 -3402 0 -3402 0 -34 -34z m215 -104 c40
-21 71 -73 71 -117 0 -69 -66 -135 -135 -135 -69 0 -135 66 -135 135 0 69 66
135 135 135 17 0 46 -8 64 -18z m368 8 c24 0 73 -52 83 -88 27 -100 -61 -189
-160 -162 -123 33 -126 212 -4 250 16 5 38 7 49 5 11 -3 25 -5 32 -5z m3553
-410 c0 -16 -25 -305 -55 -642 -30 -337 -66 -741 -80 -897 -14 -157 -26 -286
-28 -287 -8 -6 -732 -204 -747 -204 -26 0 -733 199 -741 208 -3 4 -27 248 -53
542 -27 294 -63 704 -82 910 -18 206 -34 381 -34 388 0 9 189 12 910 12 l910
0 0 -30z m1785 -287 c-28 -68 -28 -109 0 -175 4 -10 3 -18 -3 -18 -16 0 -42
65 -42 105 0 40 26 105 42 105 6 0 7 -8 3 -17z m640 -78 c0 -84 -2 -95 -17
-95 -16 0 -18 11 -18 95 0 84 2 95 18 95 15 0 17 -11 17 -95z m-1835 9 l0 -75
-37 3 -38 3 0 50 c0 47 2 50 28 53 19 2 27 9 27 23 0 10 5 19 10 19 6 0 10
-32 10 -76z m980 66 c0 -5 -7 -10 -15 -10 -8 0 -15 5 -15 10 0 6 7 10 15 10 8
0 15 -4 15 -10z m900 0 c0 -5 -7 -10 -15 -10 -8 0 -15 5 -15 10 0 6 7 10 15
10 8 0 15 -4 15 -10z m-5720 -14 c0 -8 6 -17 13 -20 10 -5 10 -7 0 -12 -16 -7
-17 -56 -1 -72 15 -15 4 -26 -17 -19 -10 4 -15 19 -15 45 0 21 -5 43 -12 50
-9 9 -9 12 0 12 7 0 12 7 12 15 0 8 5 15 10 15 6 0 10 -6 10 -14z m4520 -1 c0
-8 5 -15 12 -15 9 0 9 -3 0 -12 -14 -14 -16 -78 -2 -78 6 0 10 -4 10 -10 0 -5
-9 -10 -20 -10 -17 0 -20 7 -20 44 0 26 -5 47 -12 50 -10 5 -10 7 0 12 6 3 12
12 12 20 0 8 5 14 10 14 6 0 10 -7 10 -15z m351 3 c5 -83 3 -128 -8 -128 -17
0 -30 65 -25 123 2 19 32 24 33 5z m599 -3 c0 -8 5 -15 12 -15 9 0 9 -3 0 -12
-14 -14 -16 -78 -2 -78 6 0 10 -4 10 -10 0 -5 -9 -10 -20 -10 -17 0 -20 7 -20
44 0 26 -5 47 -12 50 -10 5 -10 7 0 12 6 3 12 12 12 20 0 8 5 14 10 14 6 0 10
-7 10 -15z m-6144 -47 l7 -33 9 33 c5 17 13 32 19 32 11 0 5 -43 -12 -87 -8
-21 -29 -32 -29 -15 0 4 -7 28 -15 55 -12 39 -12 47 0 47 7 0 17 -15 21 -32z
m132 -25 l3 -53 -35 0 c-26 0 -36 5 -41 20 -8 25 10 50 36 50 11 0 19 5 19 11
0 7 -10 9 -25 5 -14 -4 -25 -3 -25 2 0 16 14 23 40 20 23 -3 25 -8 28 -55z
m72 47 c0 -5 -4 -10 -10 -10 -5 0 -10 -20 -10 -45 0 -33 -4 -45 -15 -45 -12 0
-15 13 -15 55 0 52 1 55 25 55 14 0 25 -4 25 -10z m128 -2 c16 -16 15 -28 -3
-28 -8 0 -15 5 -15 10 0 6 -7 10 -15 10 -10 0 -15 -11 -15 -35 0 -24 5 -35 15
-35 8 0 15 5 15 10 0 6 7 10 15 10 8 0 15 -4 15 -9 0 -16 -29 -33 -52 -29 -19
2 -24 10 -26 42 -2 21 -1 44 2 52 7 17 48 18 64 2z m103 -15 c20 -55 -26 -106
-67 -73 -17 15 -19 71 -2 88 22 22 58 14 69 -15z m41 -15 c4 -59 28 -63 28 -4
0 34 4 46 15 46 12 0 15 -13 15 -56 l0 -55 -37 3 -38 3 -3 53 c-2 30 1 52 7
52 5 0 11 -19 13 -42z m152 26 c3 -9 6 -33 6 -55 0 -28 -4 -39 -15 -39 -11 0
-15 12 -15 46 0 59 -24 55 -28 -4 -5 -62 -22 -51 -22 13 l0 55 34 0 c22 0 36
-6 40 -16z m167 -14 l6 -25 8 28 c4 15 13 27 20 27 11 0 10 -14 -5 -65 -22
-76 -27 -85 -46 -85 -18 0 -18 8 1 27 8 8 13 18 11 21 -2 4 -9 26 -15 49 -16
57 -41 49 -41 -13 0 -32 -4 -44 -15 -44 -12 0 -15 13 -15 56 l0 55 42 -3 c35
-3 43 -7 49 -28z m317 -27 c2 -32 -1 -53 -7 -53 -6 0 -11 20 -11 45 0 33 -4
45 -15 45 -11 0 -15 -12 -15 -45 0 -25 -4 -45 -10 -45 -5 0 -10 25 -10 56 l0
55 33 -3 c31 -3 32 -4 35 -55z m100 25 c3 -25 0 -28 -27 -28 -23 0 -29 -4 -24
-15 3 -9 13 -15 23 -13 9 2 19 -1 21 -7 6 -15 -40 -18 -57 -5 -17 15 -19 71
-2 88 7 7 24 12 38 10 19 -2 26 -10 28 -30z m39 5 l10 -28 6 28 c4 15 12 27
17 27 5 0 13 -12 17 -27 l6 -28 10 28 c5 15 13 27 18 27 12 0 11 -12 -2 -66
-12 -48 -29 -53 -40 -13 l-6 24 -11 -27 c-17 -41 -29 -34 -41 22 -13 61 -13
60 -2 60 5 0 13 -12 18 -27z m3364 0 c20 -55 -26 -106 -67 -73 -17 15 -19 71
-2 88 22 22 58 14 69 -15z m89 12 c16 -20 5 -32 -14 -16 -20 17 -36 6 -36 -24
0 -30 16 -41 36 -24 19 16 30 4 14 -16 -8 -9 -25 -15 -39 -13 -22 3 -26 9 -29
42 -2 21 -1 44 2 52 7 19 50 18 66 -1z m50 -31 c0 -59 24 -55 28 4 5 62 22 51
22 -13 l0 -55 -34 0 c-38 0 -46 12 -46 71 0 28 4 39 15 39 11 0 15 -12 15 -46z
m198 -11 c2 -31 -1 -53 -7 -53 -5 0 -11 19 -13 42 -4 59 -28 63 -28 4 0 -34
-4 -46 -15 -46 -11 0 -15 12 -15 46 0 59 -24 55 -28 -4 -5 -62 -22 -51 -22 13
l0 56 63 -3 62 -3 3 -52z m96 41 c13 -33 6 -44 -25 -44 -20 0 -29 -4 -26 -12
2 -7 13 -13 25 -13 12 0 22 -5 22 -10 0 -6 -15 -10 -32 -10 -29 0 -33 4 -36
29 -6 52 5 76 37 76 17 0 31 -6 35 -16z m94 -41 c2 -31 -1 -53 -7 -53 -5 0
-11 19 -13 42 -4 59 -28 63 -28 4 0 -34 -4 -46 -15 -46 -12 0 -15 13 -15 56
l0 55 38 -3 37 -3 3 -52z m157 30 l8 -28 6 24 c10 37 29 36 40 -1 6 -21 10
-26 10 -13 2 24 18 52 26 44 10 -11 -18 -109 -32 -109 -7 0 -13 9 -13 19 0 28
-18 36 -22 9 -5 -38 -25 -30 -37 16 -13 54 -14 66 -2 66 5 0 12 -12 16 -27z
m155 17 c0 -5 -4 -10 -10 -10 -5 0 -10 -20 -10 -45 0 -33 -4 -45 -15 -45 -12
0 -15 13 -15 55 0 52 1 55 25 55 14 0 25 -4 25 -10z m40 -45 c0 -30 -4 -55
-10 -55 -5 0 -10 25 -10 55 0 30 5 55 10 55 6 0 10 -25 10 -55z m148 43 c7 -7
12 -20 12 -30 0 -13 -8 -18 -31 -18 -20 0 -29 -4 -26 -12 2 -7 13 -13 25 -13
12 0 22 -5 22 -10 0 -6 -15 -10 -32 -10 -31 0 -33 2 -36 39 -2 21 -1 44 2 52
7 17 48 18 64 2z m159 -3 c3 -9 2 -19 -2 -23 -4 -4 -10 -1 -12 6 -7 18 -31 14
-38 -7 -11 -36 25 -74 38 -38 2 6 8 9 12 5 14 -13 -4 -38 -28 -38 -31 0 -47
18 -47 55 0 17 5 36 12 43 17 17 58 15 65 -3z m91 3 c17 -17 15 -73 -2 -88
-42 -34 -92 22 -68 75 13 27 49 34 70 13z m52 -34 c0 -59 24 -55 28 4 5 62 22
51 22 -14 l0 -55 -32 3 c-32 3 -33 4 -36 56 -2 31 1 52 7 52 6 0 11 -20 11
-46z m148 -11 c2 -31 -1 -53 -7 -53 -5 0 -11 19 -13 42 -4 59 -28 63 -28 4 0
-34 -4 -46 -15 -46 -12 0 -15 13 -15 56 l0 55 38 -3 37 -3 3 -52z m169 30 c10
-25 11 -26 12 -6 1 22 18 40 27 30 11 -11 -37 -147 -51 -147 -18 0 -19 12 -4
27 18 18 -8 105 -30 101 -11 -2 -17 -16 -19 -46 -5 -61 -22 -51 -22 13 l0 55
38 0 c32 0 40 -4 49 -27z m133 -28 c0 -30 -4 -55 -10 -55 -5 0 -10 25 -10 55
0 30 5 55 10 55 6 0 10 -25 10 -55z m-5420 25 c0 -5 -16 -10 -35 -10 -19 0
-35 5 -35 10 0 6 16 10 35 10 19 0 35 -4 35 -10z m0 -40 c0 -5 -16 -10 -35
-10 -19 0 -35 5 -35 10 0 6 16 10 35 10 19 0 35 -4 35 -10z m4280 -30 c0 -5
-7 -10 -15 -10 -8 0 -15 5 -15 10 0 6 7 10 15 10 8 0 15 -4 15 -10z m-4775
-130 c27 -53 10 -180 -25 -180 -13 0 -13 1 6 39 29 58 5 176 -28 143 -15 -15
-17 -122 -4 -162 8 -24 8 -24 -10 -7 -15 14 -19 32 -19 91 0 42 5 79 12 87 21
25 52 20 68 -11z m3985 -65 c0 -88 -1 -95 -20 -95 -11 0 -20 5 -20 10 0 6 5
10 10 10 6 0 10 32 10 75 0 43 -4 75 -10 75 -5 0 -10 5 -10 10 0 6 9 10 20 10
19 0 20 -7 20 -95z m791 35 c14 -47 5 -101 -22 -132 l-20 -23 8 25 c11 34 10
139 -1 170 -8 22 -7 23 8 11 9 -7 21 -30 27 -51z m-561 25 c0 -14 -4 -25 -10
-25 -5 0 -10 11 -10 25 0 14 5 25 10 25 6 0 10 -11 10 -25z m30 0 c0 -14 -4
-25 -10 -25 -5 0 -10 11 -10 25 0 14 5 25 10 25 6 0 10 -11 10 -25z m130 5 c0
-13 7 -20 18 -20 27 0 42 -20 42 -55 0 -38 -16 -55 -52 -55 l-28 0 0 75 c0 43
4 75 10 75 6 0 10 -9 10 -20z m320 -5 c0 -14 -4 -25 -10 -25 -5 0 -10 11 -10
25 0 14 5 25 10 25 6 0 10 -11 10 -25z m30 0 c0 -14 -4 -25 -10 -25 -5 0 -10
11 -10 25 0 14 5 25 10 25 6 0 10 -11 10 -25z m-5150 -51 c21 -62 20 -99 -1
-61 -12 21 -59 23 -59 2 0 -8 -7 -15 -14 -15 -14 0 -8 26 29 128 10 26 24 9
45 -54z m4990 59 c0 -25 -46 -143 -56 -143 -9 0 -5 22 13 75 13 41 29 75 34
75 5 0 9 -3 9 -7z m-460 -33 c0 -11 7 -20 15 -20 8 0 15 -4 15 -10 0 -5 -7
-10 -15 -10 -8 0 -15 -9 -15 -20 0 -11 -7 -20 -15 -20 -8 0 -15 9 -15 20 0 11
-7 20 -15 20 -8 0 -15 5 -15 10 0 6 7 10 15 10 8 0 15 9 15 20 0 11 7 20 15
20 8 0 15 -9 15 -20z m-4440 0 c0 -5 -7 -10 -15 -10 -11 0 -15 -12 -15 -45 0
-25 -4 -45 -10 -45 -5 0 -10 25 -10 55 0 52 1 55 25 55 14 0 25 -4 25 -10z
m60 0 c0 -5 -7 -10 -15 -10 -11 0 -15 -12 -15 -45 0 -25 -4 -45 -10 -45 -5 0
-10 25 -10 55 0 52 1 55 25 55 14 0 25 -4 25 -10z m80 -48 l6 -53 -36 3 c-32
3 -35 6 -35 33 0 23 5 31 23 33 12 2 22 8 22 14 0 6 -10 8 -25 4 -14 -4 -25
-3 -25 2 0 16 14 23 40 20 22 -3 26 -8 30 -56z m48 26 l9 -33 7 33 c4 17 14
32 21 32 21 0 -26 -144 -48 -148 -9 -2 -17 1 -17 7 0 6 5 11 10 11 14 0 12 41
-5 89 -12 35 -12 41 0 41 8 0 18 -15 23 -32z m212 22 c0 -5 -7 -10 -15 -10 -8
0 -15 5 -15 10 0 6 7 10 15 10 8 0 15 -4 15 -10z m4260 -3 c0 -8 -10 -18 -22
-24 l-23 -10 23 -7 c12 -4 22 -14 22 -23 0 -8 -3 -13 -7 -11 -74 36 -78 44
-35 70 34 20 42 21 42 5z m170 3 c0 -5 -4 -10 -10 -10 -5 0 -10 -20 -10 -45 0
-33 -4 -45 -15 -45 -12 0 -15 13 -15 55 0 52 1 55 25 55 14 0 25 -4 25 -10z
m138 -10 c17 -11 32 -22 32 -25 0 -6 -62 -45 -72 -45 -18 0 -6 21 18 32 l25
12 -25 13 c-14 8 -26 18 -26 23 0 15 11 12 48 -10z m202 10 c0 -5 -7 -10 -15
-10 -8 0 -15 5 -15 10 0 6 7 10 15 10 8 0 15 -4 15 -10z m-4770 -89 c0 -17
-12 -41 -21 -41 -5 0 -9 11 -9 25 0 16 6 25 15 25 8 0 15 -4 15 -9z m4760 -10
c0 -19 -17 -38 -25 -29 -7 7 7 48 16 48 5 0 9 -9 9 -19z m-5110 -601 c0 -5 -4
-10 -10 -10 -5 0 -10 5 -10 10 0 6 5 10 10 10 6 0 10 -4 10 -10z m110 -65 c0
-43 -4 -75 -10 -75 -6 0 -10 32 -10 75 0 43 4 75 10 75 6 0 10 -32 10 -75z
m860 65 c0 -5 -4 -10 -10 -10 -5 0 -10 5 -10 10 0 6 5 10 10 10 6 0 10 -4 10
-10z m-1020 -15 c0 -8 5 -15 12 -15 9 0 9 -3 0 -12 -14 -14 -16 -78 -2 -78 6
0 10 -4 10 -10 0 -5 -9 -10 -20 -10 -17 0 -20 7 -20 44 0 26 -5 47 -12 50 -10
5 -10 7 0 12 6 3 12 12 12 20 0 8 5 14 10 14 6 0 10 -7 10 -15z m100 1 c0 -8
6 -17 13 -20 10 -5 10 -7 0 -12 -16 -7 -17 -56 -1 -72 15 -15 4 -26 -17 -19
-10 4 -15 19 -15 45 0 21 -5 43 -12 50 -9 9 -9 12 0 12 7 0 12 7 12 15 0 8 5
15 10 15 6 0 10 -6 10 -14z m340 -40 c0 -30 -3 -61 -6 -70 -8 -21 -63 -21 -71
-1 -8 22 4 30 21 16 25 -21 36 -3 36 55 0 30 5 54 10 54 6 0 10 -24 10 -54z
m380 33 c15 -27 2 -39 -15 -15 -9 11 -20 16 -31 12 -13 -5 -14 -9 -4 -21 6 -8
20 -17 30 -20 24 -8 35 -42 20 -60 -18 -21 -67 -19 -79 4 -10 18 -6 31 11 31
4 0 8 -7 8 -15 0 -8 9 -15 20 -15 30 0 24 27 -10 45 -29 15 -41 51 -23 68 15
16 63 6 73 -14z m350 6 c0 -8 5 -15 12 -15 9 0 9 -3 0 -12 -14 -14 -16 -78 -2
-78 6 0 10 -4 10 -10 0 -5 -9 -10 -20 -10 -17 0 -20 7 -20 44 0 26 -5 47 -12
50 -10 5 -10 7 0 12 6 3 12 12 12 20 0 8 5 14 10 14 6 0 10 -7 10 -15z m-1220
-25 c0 -5 -12 -15 -26 -23 l-25 -13 25 -12 c14 -6 26 -16 26 -22 0 -13 -6 -13
-40 5 -37 19 -38 40 -2 59 32 18 42 19 42 6z m100 -45 c0 -30 -4 -55 -10 -55
-5 0 -10 25 -10 55 0 30 5 55 10 55 6 0 10 -25 10 -55z m204 39 c13 -33 6 -44
-25 -44 -20 0 -29 -4 -26 -12 2 -7 13 -13 25 -13 12 0 22 -5 22 -10 0 -6 -15
-10 -32 -10 -29 0 -33 4 -36 29 -6 52 5 76 37 76 17 0 31 -6 35 -16z m61 -1
c19 -9 35 -22 35 -28 0 -9 -60 -45 -75 -45 -16 0 -1 22 21 32 l25 12 -25 13
c-14 8 -26 18 -26 23 0 13 4 13 45 -7z m223 -40 l3 -53 -36 0 c-24 0 -38 5
-42 16 -8 23 9 48 36 52 12 2 19 8 16 13 -4 5 -18 6 -33 2 -25 -6 -26 -5 -13
11 9 10 25 16 40 14 24 -3 26 -7 29 -55z m47 25 l8 -33 6 29 c5 26 31 50 31
29 -1 -23 -28 -97 -38 -101 -6 -2 -16 15 -22 38 -6 23 -14 48 -17 56 -3 8 1
14 10 14 8 0 18 -14 22 -32z m133 -25 l3 -53 -36 0 c-24 0 -38 5 -42 16 -8 23
9 48 36 52 12 2 19 8 16 13 -4 5 -18 6 -33 2 -25 -6 -26 -5 -13 11 9 10 25 16
40 14 24 -3 26 -7 29 -55z m199 42 c3 -9 2 -19 -2 -23 -4 -4 -10 -1 -12 6 -7
18 -31 14 -38 -7 -11 -36 25 -74 38 -38 2 6 8 9 12 5 14 -13 -4 -38 -28 -38
-31 0 -47 18 -47 55 0 17 5 36 12 43 17 17 58 15 65 -3z m73 5 c0 -5 -7 -10
-15 -10 -11 0 -15 -12 -15 -45 0 -25 -4 -45 -10 -45 -5 0 -10 25 -10 55 0 52
1 55 25 55 14 0 25 -4 25 -10z m30 -45 c0 -30 -4 -55 -10 -55 -5 0 -10 25 -10
55 0 30 5 55 10 55 6 0 10 -25 10 -55z m95 0 c0 -47 -2 -50 -27 -53 -20 -2
-28 -9 -28 -23 0 -10 -4 -19 -10 -19 -6 0 -10 32 -10 76 l0 75 38 -3 37 -3 0
-50z m3291 23 l7 -33 9 33 c5 17 13 32 19 32 11 0 5 -43 -12 -87 -8 -21 -29
-32 -29 -15 0 4 -7 28 -15 55 -12 39 -12 47 0 47 7 0 17 -15 21 -32z m132 -25
l3 -53 -35 0 c-26 0 -36 5 -41 20 -8 25 10 50 36 50 11 0 19 5 19 11 0 7 -10
9 -25 5 -14 -4 -25 -3 -25 2 0 16 14 23 40 20 23 -3 25 -8 28 -55z m72 47 c0
-5 -4 -10 -10 -10 -5 0 -10 -20 -10 -45 0 -33 -4 -45 -15 -45 -12 0 -15 13
-15 55 0 52 1 55 25 55 14 0 25 -4 25 -10z m130 -48 l6 -53 -36 3 c-32 3 -35
6 -35 33 0 23 5 31 23 33 12 2 22 8 22 14 0 6 -10 8 -25 4 -14 -4 -25 -3 -25
2 0 16 14 23 40 20 22 -3 26 -8 30 -56z m80 48 c0 -5 -7 -10 -15 -10 -11 0
-15 -12 -15 -45 0 -25 -4 -45 -10 -45 -5 0 -10 25 -10 55 0 52 1 55 25 55 14
0 25 -4 25 -10z m60 0 c0 -5 -7 -10 -15 -10 -11 0 -15 -12 -15 -45 0 -25 -4
-45 -10 -45 -5 0 -10 25 -10 55 0 52 1 55 25 55 14 0 25 -4 25 -10z m78 -47
l3 -53 -35 0 c-26 0 -36 5 -41 20 -8 25 10 50 36 50 11 0 19 5 19 11 0 7 -10
9 -25 5 -14 -4 -25 -3 -25 2 0 16 14 23 40 20 23 -3 25 -8 28 -55z m50 25 l9
-33 7 33 c4 17 14 32 21 32 21 0 -26 -144 -48 -148 -9 -2 -17 1 -17 7 0 6 5
11 10 11 14 0 12 41 -5 89 -12 35 -12 41 0 41 8 0 18 -15 23 -32z m130 -25 c2
-32 -1 -53 -7 -53 -6 0 -11 20 -11 45 0 33 -4 45 -15 45 -11 0 -15 -12 -15
-45 0 -25 -4 -45 -10 -45 -5 0 -10 25 -10 56 l0 55 33 -3 c31 -3 32 -4 35 -55z
m100 0 l3 -53 -36 0 c-24 0 -38 5 -42 16 -8 23 9 48 36 52 12 2 19 8 16 13 -4
5 -18 6 -33 2 -25 -6 -26 -5 -13 11 9 10 25 16 40 14 24 -3 26 -7 29 -55z
m150 0 c2 -31 -1 -53 -7 -53 -5 0 -11 19 -13 42 -4 59 -28 63 -28 4 0 -34 -4
-46 -15 -46 -11 0 -15 12 -15 46 0 59 -24 55 -28 -4 -5 -62 -22 -51 -22 13 l0
56 63 -3 62 -3 3 -52z m90 45 c7 -7 12 -20 12 -30 0 -13 -8 -18 -31 -18 -20 0
-29 -4 -26 -12 2 -7 13 -13 25 -13 12 0 22 -5 22 -10 0 -6 -15 -10 -32 -10
-31 0 -33 2 -36 39 -2 21 -1 44 2 52 7 17 48 18 64 2z m196 -4 c3 -9 6 -33 6
-55 0 -28 -4 -39 -15 -39 -11 0 -15 12 -15 46 0 59 -24 55 -28 -4 -5 -62 -22
-51 -22 13 l0 55 34 0 c22 0 36 -6 40 -16z m94 -16 c3 -24 0 -28 -22 -28 -17
0 -26 -5 -26 -16 0 -12 7 -15 25 -11 16 3 24 0 22 -7 -5 -16 -46 -20 -63 -6
-17 15 -18 53 -3 81 16 32 63 22 67 -13z m43 5 l1 -28 11 28 c13 31 37 36 37
7 0 -11 5 -20 10 -20 6 0 10 9 10 20 0 11 7 20 15 20 8 0 12 -6 10 -12 -2 -7
-9 -32 -15 -55 -13 -51 -26 -55 -38 -10 l-9 32 -7 -32 c-10 -45 -32 -42 -40 6
-3 22 -9 46 -12 55 -4 11 -1 16 10 16 11 0 16 -9 17 -27z m-231 -3 c0 -5 -16
-10 -35 -10 -19 0 -35 5 -35 10 0 6 16 10 35 10 19 0 35 -4 35 -10z m0 -40 c0
-5 -16 -10 -35 -10 -19 0 -35 5 -35 10 0 6 16 10 35 10 19 0 35 -4 35 -10z
m-695 -160 c27 -53 10 -180 -25 -180 -13 0 -13 1 6 39 29 58 5 176 -28 143
-15 -15 -17 -122 -4 -162 8 -24 8 -24 -10 -7 -15 14 -19 32 -19 91 0 42 5 79
12 87 21 25 52 20 68 -11z m-4555 10 c0 -5 -7 -10 -15 -10 -8 0 -15 5 -15 10
0 6 7 10 15 10 8 0 15 -4 15 -10z m920 0 c0 -5 -4 -10 -10 -10 -5 0 -10 5 -10
10 0 6 5 10 10 10 6 0 10 -4 10 -10z m110 -65 c0 -43 -4 -75 -10 -75 -6 0 -10
32 -10 75 0 43 4 75 10 75 6 0 10 -32 10 -75z m-1390 46 c13 -26 13 -31 -5
-31 -8 0 -15 7 -15 15 0 26 -37 17 -44 -10 -10 -38 3 -75 25 -75 10 0 19 7 19
15 0 8 7 15 15 15 18 0 18 -5 5 -31 -7 -12 -21 -19 -40 -19 -34 0 -50 23 -50
70 0 47 16 70 50 70 19 0 33 -7 40 -19z m300 5 c0 -8 6 -17 13 -20 10 -5 10
-7 0 -12 -7 -3 -13 -21 -13 -39 0 -18 6 -35 13 -38 6 -2 9 -8 5 -12 -17 -18
-38 6 -38 44 0 22 -6 42 -12 45 -10 5 -10 7 0 12 6 3 12 12 12 20 0 8 5 14 10
14 6 0 10 -6 10 -14z m400 -52 c21 -62 20 -99 -1 -61 -12 21 -59 23 -59 2 0
-8 -7 -15 -14 -15 -14 0 -8 26 29 128 10 26 24 9 45 -54z m463 -9 c-13 -41
-29 -75 -34 -75 -13 0 -12 5 13 82 12 37 27 68 34 68 9 0 5 -22 -13 -75z m67
60 c0 -8 5 -15 12 -15 9 0 9 -3 0 -12 -14 -14 -16 -78 -2 -78 6 0 10 -4 10
-10 0 -5 -9 -10 -20 -10 -17 0 -20 7 -20 44 0 26 -5 47 -12 50 -10 5 -10 7 0
12 6 3 12 12 12 20 0 8 5 14 10 14 6 0 10 -7 10 -15z m100 1 c0 -8 6 -17 13
-20 10 -5 10 -7 0 -12 -16 -7 -17 -56 -1 -72 15 -15 4 -26 -17 -19 -10 4 -15
19 -15 45 0 21 -5 43 -12 50 -9 9 -9 12 0 12 7 0 12 7 12 15 0 8 5 15 10 15 6
0 10 -6 10 -14z m3160 -52 c21 -62 20 -99 -1 -61 -12 21 -59 23 -59 2 0 -8 -7
-15 -14 -15 -14 0 -8 26 29 128 10 26 24 9 45 -54z m-4420 26 c0 -5 -4 -10
-10 -10 -5 0 -10 -20 -10 -45 0 -33 -4 -45 -15 -45 -12 0 -15 13 -15 55 0 52
1 55 25 55 14 0 25 -4 25 -10z m88 -22 c3 -24 0 -28 -22 -28 -17 0 -26 -5 -26
-16 0 -12 7 -15 25 -11 16 3 24 0 22 -7 -5 -16 -46 -20 -63 -6 -17 15 -18 53
-3 81 16 32 63 22 67 -13z m92 -26 l6 -53 -36 3 c-32 3 -35 6 -35 33 0 23 5
31 23 33 12 2 22 8 22 14 0 6 -10 8 -25 4 -14 -4 -25 -3 -25 2 0 16 14 23 40
20 22 -3 26 -8 30 -56z m110 3 c0 -30 -4 -55 -10 -55 -5 0 -10 25 -10 55 0 30
5 55 10 55 6 0 10 -25 10 -55z m94 39 c3 -9 6 -33 6 -55 0 -28 -4 -39 -15 -39
-11 0 -15 12 -15 46 0 59 -24 55 -28 -4 -5 -62 -22 -51 -22 13 l0 55 34 0 c22
0 36 -6 40 -16z m106 -33 c0 -74 -14 -103 -47 -99 -14 2 -28 8 -30 14 -2 7 6
10 22 7 15 -3 25 -1 25 6 0 6 -8 11 -18 11 -27 0 -42 20 -42 55 0 40 16 55 57
55 33 0 33 0 33 -49z m230 39 c0 -5 -7 -10 -15 -10 -11 0 -15 -12 -15 -45 0
-25 -4 -45 -10 -45 -5 0 -10 25 -10 55 0 52 1 55 25 55 14 0 25 -4 25 -10z
m60 0 c0 -5 -7 -10 -15 -10 -11 0 -15 -12 -15 -45 0 -25 -4 -45 -10 -45 -5 0
-10 25 -10 55 0 52 1 55 25 55 14 0 25 -4 25 -10z m80 -48 l6 -53 -36 3 c-32
3 -35 6 -35 33 0 23 5 31 23 33 12 2 22 8 22 14 0 6 -10 8 -25 4 -14 -4 -25
-3 -25 2 0 16 14 23 40 20 22 -3 26 -8 30 -56z m48 26 l9 -33 7 33 c4 17 14
32 21 32 21 0 -26 -144 -48 -148 -9 -2 -17 1 -17 7 0 6 5 11 10 11 14 0 12 41
-5 89 -12 35 -12 41 0 41 8 0 18 -15 23 -32z m122 19 c0 -8 -10 -18 -22 -24
l-23 -10 23 -7 c12 -4 22 -14 22 -23 0 -8 -3 -13 -7 -11 -74 36 -78 44 -35 70
34 20 42 21 42 5z m180 -42 c0 -30 -4 -55 -10 -55 -5 0 -10 25 -10 55 0 30 5
55 10 55 6 0 10 -25 10 -55z m198 43 c7 -7 12 -20 12 -30 0 -13 -8 -18 -31
-18 -20 0 -29 -4 -26 -12 2 -7 13 -13 25 -13 12 0 22 -5 22 -10 0 -6 -15 -10
-32 -10 -31 0 -33 2 -36 39 -2 21 -1 44 2 52 7 17 48 18 64 2z m67 -5 c19 -9
35 -22 35 -28 0 -9 -60 -45 -75 -45 -16 0 -1 22 21 32 l25 12 -25 13 c-14 8
-26 18 -26 23 0 13 4 13 45 -7z m3035 7 c0 -5 -7 -10 -15 -10 -11 0 -15 -12
-15 -45 0 -25 -4 -45 -10 -45 -5 0 -10 25 -10 55 0 52 1 55 25 55 14 0 25 -4
25 -10z m60 0 c0 -5 -7 -10 -15 -10 -11 0 -15 -12 -15 -45 0 -25 -4 -45 -10
-45 -5 0 -10 25 -10 55 0 52 1 55 25 55 14 0 25 -4 25 -10z m80 -48 l6 -53
-36 3 c-32 3 -35 6 -35 33 0 23 5 31 23 33 12 2 22 8 22 14 0 6 -10 8 -25 4
-14 -4 -25 -3 -25 2 0 16 14 23 40 20 22 -3 26 -8 30 -56z m48 26 l9 -33 7 33
c4 17 14 32 21 32 21 0 -26 -144 -48 -148 -9 -2 -17 1 -17 7 0 6 5 11 10 11
14 0 12 41 -5 89 -12 35 -12 41 0 41 8 0 18 -15 23 -32z m212 22 c0 -5 -7 -10
-15 -10 -8 0 -15 5 -15 10 0 6 7 10 15 10 8 0 15 -4 15 -10z m0 -89 c0 -17
-12 -41 -21 -41 -5 0 -9 11 -9 25 0 16 6 25 15 25 8 0 15 -4 15 -9z"/>
<path d="M5744 2666 c-9 -23 0 -51 16 -51 10 0 15 10 15 29 0 32 -21 47 -31
22z"/>
<path d="M1370 2624 c0 -9 5 -14 12 -12 18 6 21 28 4 28 -9 0 -16 -7 -16 -16z"/>
<path d="M1664 2666 c-9 -24 0 -51 19 -54 15 -3 18 2 15 29 -3 35 -24 51 -34
25z"/>
<path d="M2445 2670 c-3 -5 3 -10 14 -10 12 0 21 5 21 10 0 6 -6 10 -14 10 -8
0 -18 -4 -21 -10z"/>
<path d="M5844 2666 c-9 -24 0 -51 19 -54 15 -3 18 2 15 29 -3 35 -24 51 -34
25z"/>
<path d="M6285 2670 c-3 -5 3 -10 15 -10 12 0 18 5 15 10 -3 6 -10 10 -15 10
-5 0 -12 -4 -15 -10z"/>
<path d="M6880 2670 c0 -5 7 -10 15 -10 8 0 15 5 15 10 0 6 -7 10 -15 10 -8 0
-15 -4 -15 -10z"/>
<path d="M7130 2645 c0 -37 22 -49 34 -19 9 23 -2 54 -20 54 -9 0 -14 -11 -14
-35z"/>
<path d="M6140 2395 c0 -24 5 -35 15 -35 10 0 15 11 15 35 0 24 -5 35 -15 35
-10 0 -15 -11 -15 -35z"/>
<path d="M1297 2410 c-3 -13 0 -20 9 -20 15 0 19 26 5 34 -5 3 -11 -3 -14 -14z"/>
<path d="M1520 2375 c0 -8 7 -15 15 -15 8 0 15 7 15 15 0 8 -7 15 -15 15 -8 0
-15 -7 -15 -15z"/>
<path d="M1635 1680 c-3 -5 3 -10 15 -10 12 0 18 5 15 10 -3 6 -10 10 -15 10
-5 0 -12 -4 -15 -10z"/>
<path d="M1920 1634 c0 -9 5 -14 12 -12 18 6 21 28 4 28 -9 0 -16 -7 -16 -16z"/>
<path d="M2100 1634 c0 -9 5 -14 12 -12 18 6 21 28 4 28 -9 0 -16 -7 -16 -16z"/>
<path d="M2494 1676 c-9 -23 0 -51 16 -51 10 0 15 10 15 29 0 32 -21 47 -31
22z"/>
<path d="M5920 1634 c0 -9 5 -14 12 -12 18 6 21 28 4 28 -9 0 -16 -7 -16 -16z"/>
<path d="M6120 1635 c0 -8 7 -15 15 -15 8 0 15 7 15 15 0 8 -7 15 -15 15 -8 0
-15 -7 -15 -15z"/>
<path d="M6340 1634 c0 -17 22 -14 28 4 2 7 -3 12 -12 12 -9 0 -16 -7 -16 -16z"/>
<path d="M6620 1634 c0 -17 22 -14 28 4 2 7 -3 12 -12 12 -9 0 -16 -7 -16 -16z"/>
<path d="M6860 1680 c0 -5 7 -10 15 -10 8 0 15 5 15 10 0 6 -7 10 -15 10 -8 0
-15 -4 -15 -10z"/>
<path d="M7150 1680 c0 -5 7 -10 15 -10 8 0 15 5 15 10 0 6 -7 10 -15 10 -8 0
-15 -4 -15 -10z"/>
<path d="M2057 1420 c-3 -13 0 -20 9 -20 15 0 19 26 5 34 -5 3 -11 -3 -14 -14z"/>
<path d="M5847 1420 c-3 -13 0 -20 9 -20 15 0 19 26 5 34 -5 3 -11 -3 -14 -14z"/>
<path d="M1510 1430 c0 -5 7 -10 15 -10 8 0 15 5 15 10 0 6 -7 10 -15 10 -8 0
-15 -4 -15 -10z"/>
<path d="M1600 1385 c0 -8 7 -15 15 -15 8 0 15 7 15 15 0 8 -7 15 -15 15 -8 0
-15 -7 -15 -15z"/>
<path d="M1900 1405 c0 -24 5 -35 15 -35 10 0 15 11 15 35 0 24 -5 35 -15 35
-10 0 -15 -11 -15 -35z"/>
<path d="M2280 1385 c0 -8 7 -15 15 -15 8 0 15 7 15 15 0 8 -7 15 -15 15 -8 0
-15 -7 -15 -15z"/>
<path d="M2830 1430 c0 -5 7 -10 15 -10 8 0 15 5 15 10 0 6 -7 10 -15 10 -8 0
-15 -4 -15 -10z"/>
<path d="M6070 1385 c0 -8 7 -15 15 -15 8 0 15 7 15 15 0 8 -7 15 -15 15 -8 0
-15 -7 -15 -15z"/>
<path d="M7560 344 c0 -14 -4 -23 -10 -19 -16 10 -48 -5 -55 -25 -11 -35 11
-59 55 -58 l40 0 0 64 c0 50 -3 64 -15 64 -9 0 -15 -10 -15 -26z m0 -59 c0
-25 -23 -35 -35 -15 -10 16 2 40 20 40 9 0 15 -9 15 -25z"/>
<path d="M7840 305 l0 -65 34 0 c40 0 59 19 54 57 -2 23 -8 28 -30 28 -23 -1
-28 4 -28 22 0 14 -6 23 -15 23 -12 0 -15 -14 -15 -65z m63 -7 c6 -19 -3 -38
-19 -38 -8 0 -14 10 -14 25 0 26 25 35 33 13z"/>
<path d="M7398 319 c-25 -14 -23 -56 3 -69 24 -13 61 -10 66 6 2 7 -5 10 -20
7 -14 -3 -28 0 -31 6 -5 7 4 11 23 11 24 0 31 4 31 19 0 29 -39 40 -72 20z
m45 -16 c-7 -2 -19 -2 -25 0 -7 3 -2 5 12 5 14 0 19 -2 13 -5z"/>
<path d="M7622 288 l3 -43 43 -2 42 -2 0 45 c0 32 -4 44 -15 44 -10 0 -15 -11
-15 -35 0 -24 -5 -35 -15 -35 -10 0 -15 11 -15 35 0 25 -4 35 -16 35 -12 0
-14 -9 -12 -42z"/>
<path d="M7746 315 c-9 -9 -16 -23 -16 -30 0 -23 31 -46 58 -43 35 4 39 24 5
23 -21 0 -28 5 -28 20 0 15 7 20 28 20 15 -1 26 4 24 10 -6 17 -53 17 -71 0z"/>
<path d="M7967 323 c-14 -14 -6 -20 21 -16 26 4 26 3 -5 -11 -18 -8 -33 -19
-33 -24 0 -18 25 -32 57 -32 32 0 33 2 33 39 0 26 -5 41 -16 45 -21 8 -49 8
-57 -1z m48 -53 c-3 -5 -13 -10 -21 -10 -8 0 -14 5 -14 10 0 6 9 10 21 10 11
0 17 -4 14 -10z"/>
<path d="M8148 319 c-24 -14 -23 -56 1 -69 28 -14 61 -12 61 4 0 9 -8 12 -25
8 -22 -4 -25 -1 -25 23 0 24 3 27 25 22 16 -3 24 0 22 7 -5 15 -38 18 -59 5z"/>
<path d="M8242 318 c-29 -29 -7 -78 34 -78 25 0 54 24 54 45 0 36 -62 59 -88
33z m53 -33 c0 -11 -8 -21 -17 -23 -14 -3 -18 3 -18 23 0 20 4 26 18 23 9 -2
17 -12 17 -23z"/>
<path d="M8350 284 c0 -32 4 -44 15 -44 10 0 15 11 15 35 0 24 5 35 15 35 10
0 15 -11 15 -35 0 -24 5 -35 15 -35 10 0 15 11 15 35 0 24 5 35 15 35 10 0 15
-11 15 -35 0 -25 4 -35 16 -35 12 0 14 9 12 43 l-3 42 -72 1 -73 1 0 -43z"/>
<path d="M8070 255 c0 -8 7 -15 15 -15 8 0 15 7 15 15 0 8 -7 15 -15 15 -8 0
-15 -7 -15 -15z"/>
</g>
</svg>
